<svg width="172" height="180" viewBox="0 0 172 180" fill="none" xmlns="http://www.w3.org/2000/svg">
<path d="M82 10L82.0155 89.9213L112.615 16.0896L82.0445 89.9335L138.568 33.4315L82.0664 89.9555L155.91 59.3852L82.0787 89.9845L162 90L82.0787 90.0155L155.91 120.615L82.0664 90.0445L138.568 146.568L82.0445 90.0664L112.615 163.91L82.0155 90.0787L82 170L81.9845 90.0787L51.3852 163.91L81.9555 90.0664L25.4315 146.568L81.9335 90.0445L8.08961 120.615L81.9213 90.0155L2 90L81.9213 89.9845L8.08961 59.3852L81.9335 89.9555L25.4315 33.4315L81.9555 89.9335L51.3852 16.0896L81.9845 89.9213L82 10Z" fill="#F0C3D2" stroke="white" stroke-width="2"/>
</svg>
